<?xml version="1.0" encoding="UTF-8"?><svg id="Layer_2" xmlns="http://www.w3.org/2000/svg" viewBox="0 0 908 908"><defs><style>.cls-1{fill:#ebf2fa;}.cls-1,.cls-2{stroke-width:0px;}.cls-2{fill:#ff8c42;}</style></defs><g id="FavIcon"><circle class="cls-1" cx="454" cy="454" r="454"/><circle class="cls-2" cx="454.67" cy="780.75" r="51.06"/><path class="cls-2" d="m635.39,256.86c.23,58.12-26.89,109.92-69.21,143.27-8.12,6.4-14.28,14.94-17.68,24.71l-93.03,267.79-75.74-211.7-14.85-41.48c-.24-2.62-.36-5.28-.36-7.97,0-9.12,1.38-17.92,3.94-26.16,10.64-34.32,41.68-59.19,78.35-59.35h.07c.17.01.35.03.52.04,2.14.16,4.29.24,6.41.24.03-.01.04,0,.07,0,44.61,0,83.29-33.62,88.25-78.57,5.91-53.5-35.81-98.78-88.11-98.78-48.97,0-88.68,39.7-88.68,88.68v.91c.03,1.71-.77,3.33-2.12,4.35l-72.66,55.06c-2.98,2.26-7.35.95-8.53-2.59-6.09-18.14-9.39-37.55-9.39-57.73,0-100.6,81.89-182.07,182.65-181.39,98.98.67,179.73,81.68,180.12,180.66Z"/></g></svg>