<?xml version="1.0" encoding="UTF-8"?><svg id="Layer_2" xmlns="http://www.w3.org/2000/svg" viewBox="0 0 270 562.37"><defs><style>.cls-1{fill:#ff8c42;stroke-width:0px;}</style></defs><g id="Logo_Merged"><circle class="cls-1" cx="135.5" cy="524.37" r="38"/><path class="cls-1" d="m270,134.46c.17,43.26-20.01,81.81-51.51,106.63-6.04,4.76-10.63,11.12-13.16,18.39l-69.24,199.31-56.37-157.56-11.05-30.87c-.18-1.95-.27-3.93-.27-5.93,0-6.79,1.03-13.34,2.93-19.47,7.92-25.54,31.02-44.05,58.31-44.17h.05c.13.01.26.02.39.03,1.59.12,3.19.18,4.77.18.02,0,.03,0,.05,0,33.2,0,61.99-25.02,65.68-58.48,4.4-39.82-26.65-73.52-65.58-73.52-36.45,0-66,29.55-66,66v.68c.02,1.27-.57,2.48-1.58,3.24l-54.08,40.98c-2.22,1.68-5.47.71-6.35-1.93-4.53-13.5-6.99-27.95-6.99-42.97C0,60.13,60.95-.51,135.94,0c73.67.5,133.77,60.79,134.06,134.46Z"/></g></svg>